<svg xmlns="http://www.w3.org/2000/svg" width="191.288" height="103.614" viewBox="0 0 191.288 103.614">
  <path id="icons8-php-logo" d="M96.644,12C43.016,12,1,34.759,1,63.807s42.016,51.807,95.644,51.807,95.644-22.759,95.644-51.807S150.272,12,96.644,12ZM86.713,27.941H97.158l-3.3,15.941h9.325a18.1,18.1,0,0,1,12.143,2.9,10.214,10.214,0,0,1,1.993,9.963l-4.153,19.021h-10.62l3.814-17.606a5.89,5.89,0,0,0-.53-4.981,7.345,7.345,0,0,0-5.244-1.323H92.213L87.167,75.763H76.718ZM40.852,43.881H62.1c10.134,0,16.267,6.775,13.868,16.921-2.786,11.772-10.258,14.96-23.987,14.96H45.411L43.326,87.718H32.774Zm83.689,0h21.249c10.134,0,16.267,6.775,13.868,16.921-2.786,11.772-10.258,14.96-23.987,14.96H129.1l-2.084,11.956H116.462Zm-74.646,7.97-3,15.941h6.819c5.9,0,11.378-.67,12.3-9.465.351-3.407-1.072-6.476-7.891-6.476Zm83.689,0-3,15.941H137.4c5.9,0,11.378-.67,12.3-9.465.351-3.407-1.072-6.476-7.891-6.476Z" transform="translate(-1 -12)" fill="#8b75a1"/>
</svg>
